<svg width="24" height="24" viewBox="0 0 24 24" fill="none" xmlns="http://www.w3.org/2000/svg">
<g id="Iconly/Bulk/Password">
<g id="Password">
<path id="Fill 1" opacity="0.4" d="M16.3345 1.9998H7.66549C4.27649 1.9998 2.00049 4.3778 2.00049 7.9168V16.0838C2.00049 19.6218 4.27649 21.9998 7.66549 21.9998H16.3335C19.7225 21.9998 22.0005 19.6218 22.0005 16.0838V7.9168C22.0005 4.3778 19.7235 1.9998 16.3345 1.9998Z" fill="#130F26"/>
<path id="Combined Shape" fill-rule="evenodd" clip-rule="evenodd" d="M11.3144 11.2485H17.0144C17.4244 11.2485 17.7644 11.5885 17.7644 11.9985V13.8485C17.7644 14.2685 17.4244 14.5985 17.0144 14.5985C16.5944 14.5985 16.2644 14.2685 16.2644 13.8485V12.7485H14.9344V13.8485C14.9344 14.2685 14.5944 14.5985 14.1844 14.5985C13.7644 14.5985 13.4344 14.2685 13.4344 13.8485V12.7485H11.3144C10.9944 13.8185 10.0144 14.5985 8.84437 14.5985C7.40437 14.5985 6.23438 13.4385 6.23438 11.9985C6.23438 10.5685 7.40437 9.3985 8.84437 9.3985C10.0144 9.3985 10.9944 10.1785 11.3144 11.2485ZM7.73438 11.9985C7.73438 12.6085 8.23438 13.0985 8.84438 13.0985C9.44438 13.0985 9.94438 12.6085 9.94438 11.9985C9.94438 11.3885 9.44438 10.8985 8.84438 10.8985C8.23438 10.8985 7.73438 11.3885 7.73438 11.9985Z" fill="#130F26"/>
</g>
</g>
</svg>
