<svg width="24" height="24" viewBox="0 0 24 24" fill="none" xmlns="http://www.w3.org/2000/svg">
<g id="Iconly/Bulk/Call Silent">
<g id="Call Silent">
<g id="Group">
<path id="Stroke 1" fill-rule="evenodd" clip-rule="evenodd" d="M6.18518 14.2053C-0.246309 6.91816 2.96943 4.73954 3.25398 4.38537C6.32269 1.27305 6.79871 2.68969 9.20946 5.13663C11.2404 7.20793 8.60756 8.19529 9.68653 10.653L6.18518 14.2053Z" fill="#130F26"/>
<path id="Stroke 3" fill-rule="evenodd" clip-rule="evenodd" d="M12.0902 13.3824C15.3704 16.0762 16.2956 12.2234 18.619 14.5844C21.0161 17.0314 22.3944 17.5251 19.355 20.6266C18.9975 20.9379 16.6951 24.4688 8.79956 16.7416L12.0902 13.3824Z" fill="#130F26"/>
</g>
<path id="Fill 6" opacity="0.4" d="M21.3749 3.85932V3.86949L11.9586 13.5151L3.44441 22.2459C3.27591 22.4085 3.06777 22.5 2.84971 22.5C2.63165 22.5 2.4235 22.4085 2.24509 22.2459C1.96756 21.9511 1.92791 21.5141 2.11623 21.1889L2.14597 21.1482C2.16579 21.1167 2.18562 21.0872 2.21535 21.0567L20.1755 2.62949C20.3242 2.46686 20.5423 2.36421 20.7702 2.36421C20.9982 2.36421 21.2163 2.46686 21.3749 2.62949C21.7019 2.97506 21.7019 3.51375 21.3749 3.85932Z" fill="#130F26"/>
</g>
</g>
</svg>
