<svg width="24" height="24" viewBox="0 0 24 24" fill="none" xmlns="http://www.w3.org/2000/svg">
<g id="Iconly/Light-Outline/Paper Plus">
<g id="Paper Plus">
<path id="Fill 1" fill-rule="evenodd" clip-rule="evenodd" d="M7.5729 3.51172C5.9149 3.51172 4.5399 4.85372 4.5009 6.50872V17.3397C4.4719 18.9867 5.7789 20.3387 7.4139 20.3667L7.5609 20.3657H15.5729C17.2149 20.3477 18.5539 18.9907 18.5519 17.3407V8.34172L13.9179 3.51172H7.5849H7.5729ZM7.3999 21.8667C4.9269 21.8237 2.9589 19.7867 3.0009 17.3267V6.49072C3.0579 4.00972 5.1069 2.01172 7.5699 2.01172H7.5879H14.2369C14.4409 2.01172 14.6359 2.09472 14.7779 2.24172L19.8439 7.52072C19.9769 7.65972 20.0519 7.84672 20.0519 8.03972V17.3397C20.0559 19.8087 18.0499 21.8397 15.5809 21.8657L7.3999 21.8667Z" fill="black"/>
<path id="Fill 3" fill-rule="evenodd" clip-rule="evenodd" d="M19.073 8.984H16.319C14.488 8.979 13 7.487 13 5.659V2.75C13 2.336 13.336 2 13.75 2C14.164 2 14.5 2.336 14.5 2.75V5.659C14.5 6.663 15.317 7.481 16.321 7.484H19.073C19.487 7.484 19.823 7.82 19.823 8.234C19.823 8.648 19.487 8.984 19.073 8.984Z" fill="black"/>
<path id="Fill 5" fill-rule="evenodd" clip-rule="evenodd" d="M13.7935 13.6641H8.89453C8.48053 13.6641 8.14453 13.3281 8.14453 12.9141C8.14453 12.5001 8.48053 12.1641 8.89453 12.1641H13.7935C14.2075 12.1641 14.5435 12.5001 14.5435 12.9141C14.5435 13.3281 14.2075 13.6641 13.7935 13.6641Z" fill="black"/>
<path id="Fill 7" fill-rule="evenodd" clip-rule="evenodd" d="M11.3445 16.1142C10.9305 16.1142 10.5945 15.7782 10.5945 15.3642V10.4642C10.5945 10.0502 10.9305 9.71423 11.3445 9.71423C11.7585 9.71423 12.0945 10.0502 12.0945 10.4642V15.3642C12.0945 15.7782 11.7585 16.1142 11.3445 16.1142Z" fill="black"/>
</g>
</g>
</svg>
