<svg width="24" height="24" viewBox="0 0 24 24" fill="none" xmlns="http://www.w3.org/2000/svg">
<g id="Iconly/Light-Outline/Calling">
<g id="Calling">
<g id="Group 3">
<mask id="mask0_33437_4674" style="mask-type:luminance" maskUnits="userSpaceOnUse" x="14" y="2" width="9" height="9">
<path id="Clip 2" fill-rule="evenodd" clip-rule="evenodd" d="M14.354 2.00024H22.893V10.5331H14.354V2.00024Z" fill="white"/>
</mask>
<g mask="url(#mask0_33437_4674)">
<path id="Fill 1" fill-rule="evenodd" clip-rule="evenodd" d="M22.1427 10.5331C21.7657 10.5331 21.4417 10.2501 21.3987 9.86706C21.0197 6.49106 18.3977 3.87106 15.0207 3.49606C14.6097 3.45006 14.3127 3.08006 14.3587 2.66806C14.4037 2.25706 14.7707 1.95406 15.1867 2.00606C19.2647 2.45906 22.4317 5.62206 22.8887 9.69906C22.9347 10.1111 22.6387 10.4821 22.2277 10.5281C22.1997 10.5311 22.1707 10.5331 22.1427 10.5331Z" fill="black"/>
</g>
</g>
<path id="Fill 4" fill-rule="evenodd" clip-rule="evenodd" d="M18.6027 10.5439C18.2507 10.5439 17.9377 10.2959 17.8677 9.93791C17.5797 8.45791 16.4387 7.31691 14.9607 7.02991C14.5537 6.95091 14.2887 6.55791 14.3677 6.15091C14.4467 5.74391 14.8467 5.47791 15.2467 5.55791C17.3277 5.96191 18.9347 7.56791 19.3397 9.64991C19.4187 10.0579 19.1537 10.4509 18.7477 10.5299C18.6987 10.5389 18.6507 10.5439 18.6027 10.5439Z" fill="black"/>
<g id="Group 8">
<mask id="mask1_33437_4674" style="mask-type:luminance" maskUnits="userSpaceOnUse" x="2" y="1" width="21" height="22">
<path id="Clip 7" fill-rule="evenodd" clip-rule="evenodd" d="M2.00049 1.99988H22.5007V22.5004H2.00049V1.99988Z" fill="white"/>
</mask>
<g mask="url(#mask1_33437_4674)">
<path id="Fill 6" fill-rule="evenodd" clip-rule="evenodd" d="M4.35957 5.06142C4.36157 5.06142 4.31157 5.11342 4.24857 5.17542C4.00657 5.41042 3.50557 5.89942 3.50057 6.92242C3.49257 8.35342 4.43357 11.0104 8.96457 15.5404C13.4736 20.0484 16.1266 21.0004 17.5616 21.0004H17.5826C18.6056 20.9944 19.0936 20.4934 19.3286 20.2524C19.3996 20.1794 19.4576 20.1244 19.4986 20.0914C20.4956 19.0884 21.0056 18.3434 21.0006 17.8644C20.9946 17.3764 20.3876 16.8004 19.5486 16.0014C19.2816 15.7484 18.9916 15.4714 18.6856 15.1654C17.8916 14.3744 17.5006 14.5094 16.6356 14.8134C15.4406 15.2324 13.8036 15.8064 11.2526 13.2534C8.70057 10.7024 9.27257 9.06542 9.68957 7.86942C9.99157 7.00542 10.1296 6.61242 9.33657 5.81842C9.02657 5.50842 8.74757 5.21442 8.49057 4.94442C7.69657 4.11042 7.12357 3.50742 6.63857 3.50042H6.63057C6.15157 3.50042 5.40757 4.01242 4.35457 5.06542C4.35757 5.06242 4.35857 5.06142 4.35957 5.06142ZM17.5616 22.5004C15.0696 22.5004 11.8206 20.5164 7.90457 16.6014C3.97257 12.6704 1.98557 9.41142 2.00057 6.91442C2.00957 5.26442 2.87457 4.41942 3.19957 4.10242C3.21657 4.08142 3.27457 4.02442 3.29457 4.00442C4.72957 2.56942 5.71557 1.97942 6.65757 2.00042C7.77457 2.01542 8.57057 2.85242 9.57757 3.91142C9.82657 4.17242 10.0956 4.45742 10.3966 4.75742C11.8556 6.21742 11.4406 7.40842 11.1056 8.36442C10.7416 9.40742 10.4266 10.3074 12.3126 12.1934C14.1986 14.0794 15.0976 13.7644 16.1396 13.3974C17.0966 13.0634 18.2846 12.6454 19.7466 14.1054C20.0436 14.4024 20.3236 14.6684 20.5836 14.9154C21.6466 15.9274 22.4866 16.7264 22.5006 17.8464C22.5116 18.8004 21.9316 19.7744 20.4996 21.2064L19.8656 20.7764L20.4026 21.2994C20.0856 21.6244 19.2426 22.4904 17.5916 22.5004H17.5616Z" fill="black"/>
</g>
</g>
</g>
</g>
</svg>
